<svg width="420" height="420" viewBox="0 0 420 420" fill="none" xmlns="http://www.w3.org/2000/svg">
  <defs>
    <linearGradient id="gold" x1="110" y1="60" x2="310" y2="360" gradientUnits="userSpaceOnUse">
      <stop stop-color="#FFF3BF"/>
      <stop offset="0.35" stop-color="#FFC24B"/>
      <stop offset="0.7" stop-color="#C58214"/>
      <stop offset="1" stop-color="#6A4105"/>
    </linearGradient>
    <linearGradient id="ember" x1="210" y1="20" x2="210" y2="158" gradientUnits="userSpaceOnUse">
      <stop stop-color="#FFF4C2"/>
      <stop offset="0.35" stop-color="#FFAD1F"/>
      <stop offset="1" stop-color="#D9480F"/>
    </linearGradient>
    <linearGradient id="metal" x1="18" y1="225" x2="402" y2="225" gradientUnits="userSpaceOnUse">
      <stop stop-color="#151515"/>
      <stop offset="0.5" stop-color="#4B463E"/>
      <stop offset="1" stop-color="#101010"/>
    </linearGradient>
    <filter id="shadow" x="0" y="0" width="420" height="420" filterUnits="userSpaceOnUse" color-interpolation-filters="sRGB">
      <feDropShadow dx="0" dy="14" stdDeviation="12" flood-color="#59330A" flood-opacity="0.35"/>
    </filter>
  </defs>
  <g filter="url(#shadow)">
    <path d="M210 28C233 67 260 50 278 92C286 111 291 130 286 148C271 126 258 113 241 106C233 102 221 102 210 102C199 102 187 102 179 106C162 113 149 126 134 148C129 130 134 111 142 92C160 50 187 67 210 28Z" fill="url(#ember)"/>
    <path d="M102 104L210 52L318 104V267L210 350L102 267V104Z" fill="#121212" stroke="url(#gold)" stroke-width="11"/>
    <path d="M121 116L210 73L299 116V256L210 325L121 256V116Z" fill="#1B1B1B" stroke="#2E2415" stroke-width="3"/>
    <g fill="url(#gold)">
      <path d="M45 205H375V243H45V205Z"/>
      <rect x="18" y="189" width="24" height="70" rx="8"/>
      <rect x="378" y="189" width="24" height="70" rx="8"/>
      <rect x="30" y="179" width="10" height="90" rx="4"/>
      <rect x="380" y="179" width="10" height="90" rx="4"/>
      <rect x="7" y="197" width="12" height="54" rx="4"/>
      <rect x="401" y="197" width="12" height="54" rx="4"/>
    </g>
    <rect x="37" y="209" width="346" height="30" rx="14" fill="url(#metal)"/>
    <path d="M176 132C189 118 203 111 210 111C217 111 231 118 244 132L252 189H168L176 132Z" fill="#171717" stroke="url(#gold)" stroke-width="6"/>
    <path d="M160 188C164 158 178 139 210 139C242 139 256 158 260 188L270 240H150L160 188Z" fill="url(#gold)" stroke="#2A1907" stroke-width="7"/>
    <path d="M175 120C183 109 193 103 210 103C227 103 237 109 245 120V165H175V120Z" fill="#1C130C"/>
    <rect x="166" y="92" width="88" height="38" rx="10" fill="#141414" stroke="url(#gold)" stroke-width="6"/>
    <text x="210" y="119" text-anchor="middle" font-size="33" font-family="Georgia,serif" font-weight="700" fill="url(#gold)">ON</text>
    <path d="M110 243L310 243L293 304H127L110 243Z" fill="#131313" stroke="url(#gold)" stroke-width="8"/>
    <text x="210" y="270" text-anchor="middle" font-size="34" font-family="Georgia,serif" font-weight="700" fill="url(#gold)">ON</text>
    <text x="210" y="317" text-anchor="middle" font-size="54" font-family="Georgia,serif" font-weight="700" fill="url(#gold)">TRAINING</text>
    <path d="M210 326L219 344H239L223 355L229 374L210 362L191 374L197 355L181 344H201L210 326Z" fill="url(#gold)"/>
  </g>
</svg>
